<?xml version="1.0" encoding="utf-8"?>
<!-- Generator: Adobe Illustrator 23.0.3, SVG Export Plug-In . SVG Version: 6.00 Build 0)  -->
<svg version="1.1" id="图层_1" xmlns="http://www.w3.org/2000/svg" xmlns:xlink="http://www.w3.org/1999/xlink" x="0px" y="0px"
	 viewBox="0 0 1043.39 344.39" style="enable-background:new 0 0 1043.39 344.39;" xml:space="preserve">
<style type="text/css">
	.st0{fill:#F3512B;}
	.st1{fill:#1C1B1B;}
</style>
<g>
	<path class="st0" d="M335.37,133.59h44.67l2.63-14.89H338l0.9-5.12c0.73-4.11,4.65-7.45,8.76-7.45h37.23l2.63-14.89h-48.4
		c-8.22,0-16.07,6.67-17.51,14.89l-9.68,54.91h18.61L335.37,133.59z"/>
	<path class="st0" d="M399.23,161.04h33.5c8.22,0,16.07-6.67,17.52-14.89l7.06-40.02c1.45-8.22-4.04-14.89-12.27-14.89h-33.5
		c-8.22,0-16.07,6.67-17.52,14.89l-7.06,40.02C385.52,154.37,391.01,161.04,399.23,161.04 M406.89,138.7l4.43-25.13
		c0.73-4.11,4.65-7.45,8.76-7.45h11.17c4.11,0,6.86,3.33,6.13,7.45l-4.43,25.13c-0.72,4.11-4.64,7.45-8.76,7.45h-11.17
		C408.91,146.15,406.17,142.82,406.89,138.7"/>
	<polygon class="st0" points="457.31,161.04 480.35,161.04 497.7,141.9 508.31,161.04 531.35,161.04 512,126.14 511.79,125.77 
		543.12,91.24 520.5,91.24 502.66,110.75 491.69,91.24 469.08,91.24 488.62,126.51 	"/>
	<path class="st1" d="M743.53,183.38c0.72-4.11,4.65-7.44,8.76-7.44h11.17l2.62-14.89h-18.61h-3.72c-8.22,0-16.07,6.67-17.52,14.89
		l-2.63,14.89h-18.61l-2.62,14.89h18.61l-8.53,48.39h18.61l8.53-48.39h18.61l2.62-14.89h-18.61L743.53,183.38z"/>
	<path class="st1" d="M304.04,205.71l-8.53,48.39h18.61l7.22-40.95c0.73-4.11,4.65-7.45,8.76-7.45h18.61l2.62-14.89h-29.78
		C313.33,190.82,305.49,197.49,304.04,205.71"/>
	<path class="st1" d="M648.39,205.71l-8.53,48.39h18.61l7.22-40.95c0.73-4.11,4.65-7.45,8.76-7.45h18.61l2.62-14.89H665.9
		C657.68,190.82,649.84,197.49,648.39,205.71"/>
	<path class="st1" d="M481.63,190.82h-33.5c-8.22,0-16.07,6.67-17.52,14.89l-8.53,48.39h18.61l7.22-40.95
		c0.73-4.11,4.65-7.45,8.76-7.45h11.17c4.11,0,6.86,3.33,6.13,7.45l-7.22,40.95h18.61l8.53-48.39
		C495.35,197.49,489.86,190.82,481.63,190.82"/>
	<path class="st1" d="M555.75,161.04l-5.25,29.78h-29.78c-8.22,0-16.07,6.67-17.52,14.89l-5.91,33.5
		c-1.45,8.22,4.04,14.89,12.26,14.89h48.4l16.41-93.07H555.75z M541.97,239.22h-18.61c-4.11,0-6.86-3.33-6.13-7.44l3.28-18.61
		c0.72-4.11,4.65-7.44,8.76-7.44h18.61L541.97,239.22z"/>
	<path class="st1" d="M409.04,190.82h-33.5c-8.22,0-16.07,6.67-17.51,14.89l-5.91,33.5c-1.45,8.22,4.04,14.89,12.26,14.89h44.67
		l2.63-14.89h-33.5c-4.11,0-6.86-3.33-6.13-7.45l0.33-1.86h29.78c8.22,0,16.06-6.67,17.51-14.89l1.64-9.31
		C422.75,197.49,417.26,190.82,409.04,190.82 M401.38,213.16l-0.33,1.86h-26.06l0.33-1.86c0.73-4.11,4.65-7.44,8.76-7.44h11.17
		C399.36,205.71,402.11,209.05,401.38,213.16"/>
	<path class="st1" d="M626.81,190.82h-33.5c-8.22,0-16.07,6.67-17.51,14.89l-5.91,33.5c-1.45,8.22,4.04,14.89,12.26,14.89h44.67
		l2.63-14.89h-33.5c-4.11,0-6.86-3.33-6.13-7.45l0.33-1.86h29.78c8.22,0,16.06-6.67,17.52-14.89l1.64-9.31
		C640.53,197.49,635.04,190.82,626.81,190.82 M619.15,213.16l-0.33,1.86h-26.06l0.33-1.86c0.73-4.11,4.65-7.44,8.76-7.44h11.17
		C617.13,205.71,619.88,209.05,619.15,213.16"/>
	<path class="st1" d="M861.34,190.82h-3.72c-8.22,0-16.07,6.67-17.52,14.89l-8.53,48.39h18.61l7.22-40.95
		c0.72-4.11,4.65-7.45,8.76-7.45h18.61l2.62-14.89H861.34z"/>
	<path class="st1" d="M818.53,190.82h-3.72h-40.95l-2.63,14.89h33.5c4.11,0,6.86,3.33,6.13,7.44l-0.33,1.86h-26.06h-3.72
		c-8.22,0-16.07,6.67-17.52,14.89l-1.64,9.31c-1.45,8.22,4.04,14.89,12.26,14.89h3.72h26.06h18.61l2.63-14.89l1.64-9.31l2.62-14.89
		l1.64-9.31C832.25,197.49,826.76,190.82,818.53,190.82 M806.28,239.22h-21.41c-2.57,0-4.29-2.08-3.84-4.65
		c0.46-2.57,2.91-4.65,5.48-4.65h21.41L806.28,239.22z"/>
	<path class="st1" d="M963.71,190.82h-3.72h-13.03h-18.61h-13.03h-3.72c-8.22,0-16.07,6.67-17.52,14.89l-8.54,48.39h18.61
		l7.22-40.95c0.72-4.11,4.65-7.45,8.76-7.45h5.58l-8.53,48.39h18.61l8.53-48.39h5.58c4.11,0,6.86,3.33,6.13,7.45l-7.22,40.95h18.61
		l8.53-48.39C977.43,197.49,971.94,190.82,963.71,190.82"/>
	<path class="st1" d="M124.09,261.19c0.29,0.13,0.59,0.26,0.89,0.39c0.51,0.21,1.02,0.42,1.53,0.63c0.31,0.12,0.61,0.24,0.92,0.36
		c0.51,0.19,1.02,0.38,1.54,0.56c0.32,0.11,0.64,0.23,0.96,0.34c0.51,0.17,1.03,0.34,1.55,0.5c0.33,0.1,0.66,0.21,1,0.31
		c0.52,0.15,1.05,0.3,1.58,0.44c0.34,0.09,0.67,0.19,1.01,0.27c0.56,0.14,1.13,0.27,1.7,0.4c0.31,0.07,0.61,0.15,0.92,0.21
		c0.81,0.18,1.63,0.34,2.46,0.48c0.07,0.01,0.13,0.03,0.19,0.04c0.91,0.16,1.83,0.3,2.74,0.43c4.12,0.57,8.2,0.75,12.22,0.6
		c2.64-0.1,5.25-0.34,7.82-0.73c0.27-0.04,0.54-0.1,0.82-0.14c1.68-0.28,3.35-0.6,5-1c0.1-0.02,0.2-0.04,0.3-0.07
		c0.21-0.05,0.41-0.11,0.62-0.16c16.57-4.18,31.13-14.28,40.82-28.34c5.6-8.1,9.58-17.49,11.4-27.83c1.95-11.1,1.2-22.05-1.78-32.17
		c-0.01-0.02-0.01-0.04-0.02-0.06c-0.2-0.69-0.42-1.38-0.65-2.08c-0.47,13.82-6.11,26.34-15.07,35.67
		c-7.36,7.69-16.98,13.21-27.78,15.52c-0.01,0.01-0.03,0.02-0.05,0.03c0.01-0.01,0.01-0.02,0.02-0.03c-3.67,0.78-7.48,1.2-11.38,1.2
		c-24.04,0-44.44-15.64-51.58-37.3c-0.03,0.73-0.04,1.46-0.03,2.2c0.12,19.18,10.18,35.97,25.26,45.53h0c0,0,0,0,0,0
		c-0.39-0.03-0.79-0.08-1.18-0.12c-1-0.1-2-0.22-3-0.37c-0.42-0.07-0.83-0.12-1.25-0.19c-3.37-0.59-6.6-1.5-9.69-2.65
		c-0.24-0.09-0.49-0.17-0.73-0.26c-0.06-0.02-0.11-0.05-0.17-0.07c-1.37-0.54-2.71-1.14-4.02-1.79c-0.57-0.28-1.13-0.57-1.68-0.87
		c-1.16-0.62-2.3-1.27-3.4-1.97c-0.42-0.27-0.84-0.56-1.25-0.84c-0.35-0.24-0.71-0.47-1.05-0.71c-3.31-2.35-6.33-5.07-9.01-8.06
		c-0.15-0.17-0.31-0.33-0.46-0.51c0-0.01-0.01-0.01-0.01-0.01c-1.12-1.28-2.18-2.62-3.17-4c3.37,11.99,10.81,22.51,20.99,29.69
		c0.34,0.24,0.69,0.45,1.03,0.68c1.54,1.04,3.13,2.02,4.79,2.9c0.02,0.01,0.04,0.02,0.06,0.03c3.02,1.6,6.22,2.92,9.58,3.94h0h0
		c-4.83,0.49-9.81,0.32-14.83-0.56c-5.7-1.01-11.02-2.87-15.88-5.43c-1.79-0.95-3.53-1.98-5.19-3.11c-0.73-0.5-1.44-1.02-2.15-1.55
		c-2.18-1.64-4.21-3.44-6.1-5.38c-0.34-0.35-0.7-0.69-1.03-1.05c7.87,9.47,17.51,17.43,28.4,23.38c0.39,0.22,0.78,0.43,1.17,0.63
		c0.63,0.33,1.28,0.65,1.93,0.96c0.29,0.14,0.58,0.28,0.87,0.42C123.08,260.74,123.59,260.96,124.09,261.19"/>
	<path class="st0" d="M165.38,74.95c-53.97,0-97.72,43.75-97.72,97.72c0,19.03,5.44,36.79,14.85,51.8c2.33,3.72,4.91,7.27,7.7,10.63
		c0,0,0,0,0,0c0.33,0.36,0.69,0.7,1.03,1.06c1.89,1.93,3.92,3.74,6.1,5.38c0.71,0.53,1.42,1.05,2.15,1.55
		c1.66,1.13,3.4,2.16,5.19,3.11c4.86,2.56,10.18,4.43,15.88,5.43c5.01,0.88,10,1.05,14.83,0.56h0c-3.36-1.02-6.56-2.35-9.58-3.94
		c-0.02-0.01-0.04-0.02-0.06-0.03c-1.66-0.88-3.24-1.86-4.79-2.9c-0.34-0.23-0.69-0.44-1.03-0.68
		c-10.18-7.18-17.61-17.71-20.99-29.69c0.99,1.38,2.05,2.72,3.17,4c0,0,0.01,0.01,0.01,0.01c0.15,0.17,0.31,0.34,0.46,0.51
		c2.68,3,5.7,5.71,9.01,8.06c0.34,0.24,0.7,0.47,1.05,0.71c0.42,0.28,0.83,0.57,1.25,0.84c1.1,0.7,2.24,1.35,3.4,1.97
		c0.56,0.3,1.12,0.59,1.68,0.87c1.31,0.65,2.65,1.25,4.02,1.79c0.06,0.02,0.11,0.05,0.17,0.07c0.24,0.09,0.49,0.17,0.73,0.26
		c3.09,1.16,6.32,2.06,9.69,2.65c0.42,0.07,0.83,0.13,1.25,0.19c1,0.15,2,0.28,3,0.37c0.4,0.04,0.79,0.09,1.18,0.12h0
		c-15.08-9.55-25.14-26.35-25.26-45.53c-0.01-0.74,0.01-1.47,0.03-2.2v0c-1.76-5.35-2.71-11.06-2.71-16.99
		c0-3.39,0.31-6.71,0.91-9.92c1.17-6.34,3.43-12.29,6.61-17.65c3.38-5.73,7.79-10.79,12.98-14.92c0.66-0.53,1.33-1.04,2.01-1.53
		c8.93-6.46,19.91-10.27,31.78-10.27c29.99,0,54.29,24.31,54.29,54.29c0,0.62-0.01,1.24-0.03,1.85v0.05
		c0.23,0.69,0.45,1.39,0.65,2.08c0.01,0.02,0.01,0.04,0.02,0.06c2.98,10.12,3.73,21.07,1.78,32.17c-1.83,10.34-5.8,19.73-11.4,27.83
		c-9.7,14.05-24.26,24.15-40.82,28.34c-0.21,0.05-0.41,0.11-0.62,0.17c-0.1,0.02-0.2,0.04-0.3,0.07c-1.64,0.39-3.31,0.72-5,1
		c-0.27,0.05-0.54,0.1-0.82,0.14c-2.57,0.39-5.19,0.63-7.82,0.73c-4.02,0.15-8.11-0.04-12.22-0.6c-0.91-0.13-1.83-0.27-2.74-0.43
		c-0.06-0.01-0.13-0.03-0.19-0.04c-0.82-0.15-1.65-0.31-2.46-0.48c-0.31-0.07-0.62-0.14-0.92-0.21c-0.57-0.13-1.13-0.26-1.7-0.4
		c-0.34-0.09-0.67-0.18-1.01-0.27c-0.53-0.14-1.06-0.29-1.58-0.44c-0.33-0.1-0.66-0.21-1-0.31c-0.52-0.16-1.04-0.32-1.55-0.5
		c-0.32-0.11-0.64-0.23-0.96-0.34c-0.51-0.18-1.03-0.37-1.54-0.56c-0.31-0.12-0.62-0.24-0.92-0.36c-0.51-0.2-1.03-0.41-1.53-0.63
		c-0.3-0.13-0.59-0.26-0.89-0.39c-0.51-0.22-1.01-0.45-1.51-0.68c-0.29-0.14-0.58-0.28-0.87-0.42c-0.24-0.12-0.49-0.23-0.74-0.35
		c13.32,6.82,28.41,10.66,44.41,10.66c53.97,0,97.72-43.75,97.72-97.72C263.1,118.7,219.35,74.95,165.38,74.95"/>
</g>
</svg>
