<?xml version="1.0" encoding="utf-8"?>
<!-- Generator: Adobe Illustrator 23.0.3, SVG Export Plug-In . SVG Version: 6.00 Build 0)  -->
<svg version="1.1" id="图层_1" xmlns="http://www.w3.org/2000/svg" xmlns:xlink="http://www.w3.org/1999/xlink" x="0px" y="0px"
	 viewBox="0 0 1043.39 344.39" style="enable-background:new 0 0 1043.39 344.39;" xml:space="preserve">
<style type="text/css">
	.st0{fill:#F3512B;}
	.st1{fill:#FFFFFF;}
</style>
<g>
	<path class="st0" d="M327.37,132.59h44.67l2.63-14.89H330l0.9-5.12c0.73-4.11,4.65-7.45,8.76-7.45h37.23l2.63-14.89h-48.4
		c-8.22,0-16.07,6.67-17.51,14.89l-9.68,54.91h18.61L327.37,132.59z"/>
	<path class="st0" d="M391.23,160.04h33.5c8.22,0,16.07-6.67,17.51-14.89l7.06-40.02c1.45-8.22-4.04-14.89-12.27-14.89h-33.5
		c-8.22,0-16.07,6.67-17.52,14.89l-7.06,40.02C377.52,153.37,383.01,160.04,391.23,160.04 M398.89,137.7l4.43-25.13
		c0.73-4.11,4.65-7.45,8.76-7.45h11.17c4.11,0,6.86,3.33,6.13,7.45l-4.43,25.13c-0.73,4.11-4.65,7.45-8.76,7.45h-11.17
		C400.91,145.15,398.17,141.82,398.89,137.7"/>
	<polygon class="st0" points="449.31,160.04 472.35,160.04 489.7,140.9 500.31,160.04 523.35,160.04 504,125.14 503.79,124.77 
		535.12,90.24 512.5,90.24 494.66,109.75 483.69,90.24 461.07,90.24 480.62,125.51 	"/>
	<path class="st1" d="M735.53,182.38c0.72-4.11,4.65-7.44,8.76-7.44h11.17l2.62-14.89h-18.61h-3.72c-8.22,0-16.07,6.67-17.52,14.89
		l-2.63,14.89h-18.61l-2.62,14.89h18.61l-8.53,48.39h18.61l8.53-48.39h18.61l2.62-14.89h-18.61L735.53,182.38z"/>
	<path class="st1" d="M296.04,204.71l-8.53,48.39h18.61l7.22-40.95c0.73-4.11,4.65-7.45,8.76-7.45h18.61l2.62-14.89h-29.78
		C305.33,189.82,297.49,196.49,296.04,204.71"/>
	<path class="st1" d="M640.39,204.71l-8.53,48.39h18.61l7.22-40.95c0.73-4.11,4.65-7.45,8.76-7.45h18.61l2.63-14.89H657.9
		C649.68,189.82,641.84,196.49,640.39,204.71"/>
	<path class="st1" d="M473.63,189.82h-33.5c-8.22,0-16.06,6.67-17.52,14.89l-8.53,48.39h18.61l7.22-40.95
		c0.73-4.11,4.65-7.45,8.76-7.45h11.17c4.11,0,6.86,3.33,6.13,7.45l-7.22,40.95h18.61l8.53-48.39
		C487.35,196.49,481.86,189.82,473.63,189.82"/>
	<path class="st1" d="M547.75,160.04l-5.25,29.78h-29.78c-8.22,0-16.07,6.67-17.52,14.89l-5.91,33.5
		c-1.45,8.22,4.04,14.89,12.27,14.89h48.39l16.41-93.07H547.75z M533.97,238.22h-18.61c-4.11,0-6.86-3.33-6.13-7.44l3.28-18.61
		c0.72-4.11,4.65-7.44,8.76-7.44h18.61L533.97,238.22z"/>
	<path class="st1" d="M401.04,189.82h-33.5c-8.22,0-16.06,6.67-17.51,14.89l-5.91,33.5c-1.45,8.22,4.04,14.89,12.26,14.89h44.67
		l2.63-14.89h-33.5c-4.11,0-6.86-3.33-6.13-7.45l0.33-1.86h29.78c8.22,0,16.06-6.67,17.51-14.89l1.64-9.31
		C414.76,196.49,409.26,189.82,401.04,189.82 M393.38,212.16l-0.33,1.86h-26.06l0.33-1.86c0.73-4.11,4.65-7.44,8.76-7.44h11.17
		C391.36,204.71,394.11,208.05,393.38,212.16"/>
	<path class="st1" d="M618.81,189.82h-33.5c-8.22,0-16.07,6.67-17.51,14.89l-5.91,33.5c-1.45,8.22,4.04,14.89,12.26,14.89h44.67
		l2.63-14.89h-33.5c-4.11,0-6.86-3.33-6.13-7.45l0.33-1.86h29.78c8.22,0,16.06-6.67,17.51-14.89l1.64-9.31
		C632.53,196.49,627.04,189.82,618.81,189.82 M611.15,212.16l-0.33,1.86h-26.06l0.33-1.86c0.73-4.11,4.65-7.44,8.76-7.44h11.17
		C609.13,204.71,611.88,208.05,611.15,212.16"/>
	<path class="st1" d="M853.34,189.82h-3.72c-8.22,0-16.06,6.67-17.51,14.89l-8.53,48.39h18.61l7.22-40.95
		c0.72-4.11,4.65-7.45,8.76-7.45h18.61l2.62-14.89H853.34z"/>
	<path class="st1" d="M810.53,189.82h-3.72h-40.95l-2.63,14.89h33.5c4.11,0,6.86,3.33,6.13,7.44l-0.33,1.86h-26.06h-3.72
		c-8.22,0-16.07,6.67-17.51,14.89l-1.64,9.31c-1.45,8.22,4.04,14.89,12.26,14.89h3.72h26.06h18.61l2.63-14.89l1.64-9.31l2.63-14.89
		l1.64-9.31C824.25,196.49,818.76,189.82,810.53,189.82 M798.28,238.22h-21.4c-2.57,0-4.29-2.08-3.83-4.65
		c0.46-2.57,2.9-4.65,5.48-4.65h21.41L798.28,238.22z"/>
	<path class="st1" d="M955.71,189.82h-3.72h-13.03h-18.61h-13.03h-3.72c-8.22,0-16.07,6.67-17.52,14.89l-8.53,48.39h18.61
		l7.22-40.95c0.72-4.11,4.65-7.45,8.76-7.45h5.58l-8.53,48.39h18.61l8.53-48.39h5.58c4.11,0,6.86,3.33,6.13,7.45l-7.22,40.95h18.61
		l8.54-48.39C969.43,196.49,963.94,189.82,955.71,189.82"/>
	<path class="st1" d="M116.09,260.19c0.29,0.13,0.59,0.26,0.88,0.39c0.51,0.21,1.02,0.42,1.53,0.63c0.31,0.12,0.61,0.24,0.92,0.36
		c0.51,0.19,1.02,0.38,1.54,0.56c0.32,0.11,0.64,0.23,0.96,0.34c0.51,0.17,1.03,0.34,1.55,0.5c0.33,0.1,0.66,0.21,1,0.31
		c0.52,0.15,1.05,0.3,1.58,0.44c0.34,0.09,0.67,0.19,1.01,0.27c0.56,0.14,1.13,0.27,1.69,0.4c0.31,0.07,0.62,0.15,0.93,0.22
		c0.81,0.18,1.63,0.34,2.46,0.48c0.06,0.01,0.13,0.03,0.19,0.04c0.92,0.16,1.83,0.3,2.74,0.43c4.15,0.57,8.27,0.76,12.33,0.6
		c2.6-0.1,5.17-0.34,7.71-0.72c0.27-0.04,0.55-0.1,0.82-0.14c1.66-0.27,3.3-0.6,4.91-0.98c0.13-0.03,0.26-0.05,0.39-0.09
		c0.35-0.08,0.69-0.19,1.04-0.28c16.39-4.25,30.79-14.29,40.41-28.22c5.6-8.1,9.58-17.5,11.4-27.83c1.95-11.1,1.2-22.05-1.78-32.17
		c-0.01-0.02-0.01-0.04-0.02-0.06c-0.2-0.69-0.42-1.38-0.65-2.08v0c-0.48,13.82-6.11,26.34-15.07,35.67
		c-7.36,7.69-16.98,13.21-27.78,15.52c-0.01,0.01-0.03,0.02-0.05,0.03c0.01-0.01,0.01-0.02,0.02-0.03
		c-3.67,0.78-7.48,1.19-11.38,1.19c-24.04,0-44.44-15.63-51.57-37.29c-0.03,0.72-0.04,1.46-0.03,2.2
		c0.12,19.18,10.18,35.97,25.26,45.53h0l0,0c-0.39-0.03-0.78-0.08-1.17-0.12c-1-0.1-2.01-0.22-3.01-0.37
		c-0.42-0.06-0.84-0.11-1.26-0.19c-2.6-0.46-5.11-1.1-7.55-1.9c-0.81-0.27-1.61-0.55-2.4-0.85c-0.15-0.06-0.31-0.11-0.46-0.17
		c-0.08-0.03-0.16-0.07-0.24-0.1c-1.24-0.49-2.45-1.04-3.64-1.61c-0.87-0.42-1.72-0.86-2.56-1.32c-0.23-0.13-0.46-0.24-0.69-0.37
		c-4.52-2.59-8.6-5.79-12.14-9.48c-0.01-0.01-0.03-0.03-0.04-0.04c-0.11-0.11-0.21-0.24-0.32-0.35c-1.65-1.75-3.19-3.6-4.6-5.55
		c4.91,17.43,18.4,31.78,36.44,37.24c-4.83,0.49-9.81,0.32-14.83-0.56c-5.7-1.01-11.03-2.87-15.88-5.43
		c-1.79-0.95-3.53-1.98-5.19-3.11c-0.66-0.44-1.29-0.92-1.93-1.39c-2.32-1.73-4.48-3.63-6.47-5.69c-0.29-0.3-0.6-0.59-0.88-0.9
		c7.87,9.47,17.51,17.43,28.4,23.38c0.39,0.22,0.78,0.43,1.17,0.63c0.63,0.33,1.28,0.65,1.93,0.96c0.29,0.14,0.58,0.28,0.87,0.42
		C115.08,259.74,115.59,259.96,116.09,260.19"/>
	<path class="st0" d="M157.38,73.95c-53.97,0-97.72,43.75-97.72,97.72c0,19.03,5.44,36.79,14.85,51.8c2.33,3.72,4.91,7.27,7.7,10.63
		c0,0,0,0,0,0c0.29,0.31,0.59,0.6,0.88,0.9c1.99,2.06,4.16,3.96,6.47,5.69c0.63,0.47,1.27,0.94,1.93,1.39
		c1.66,1.13,3.4,2.16,5.19,3.11c4.86,2.56,10.18,4.43,15.88,5.43c5.01,0.88,9.99,1.05,14.83,0.56
		c-18.04-5.46-31.54-19.81-36.44-37.24c1.4,1.95,2.94,3.8,4.6,5.56c0.11,0.11,0.21,0.24,0.32,0.35c0.01,0.01,0.03,0.03,0.04,0.04
		c3.55,3.69,7.62,6.89,12.14,9.48c0.22,0.13,0.46,0.24,0.69,0.37c0.84,0.46,1.69,0.9,2.56,1.32c1.19,0.58,2.4,1.12,3.64,1.61
		c0.08,0.03,0.16,0.07,0.24,0.1c0.15,0.06,0.31,0.11,0.46,0.17c0.79,0.3,1.59,0.59,2.4,0.85c2.43,0.8,4.95,1.44,7.55,1.9
		c0.42,0.07,0.84,0.13,1.25,0.19c1.01,0.15,2.01,0.28,3.01,0.37c0.39,0.04,0.78,0.09,1.17,0.11h0
		c-15.08-9.55-25.13-26.35-25.26-45.53c-0.01-0.74,0.01-1.47,0.03-2.2v0c-1.76-5.35-2.71-11.06-2.71-16.99
		c0-3.39,0.31-6.71,0.91-9.92c1.17-6.34,3.43-12.29,6.61-17.65c3.38-5.73,7.79-10.79,12.98-14.92c0.66-0.53,1.33-1.04,2.02-1.53
		c8.93-6.46,19.91-10.27,31.78-10.27c29.99,0,54.29,24.31,54.29,54.29c0,0.62-0.01,1.24-0.03,1.85v0.05v0
		c0.23,0.69,0.45,1.39,0.65,2.08c0.01,0.02,0.01,0.04,0.02,0.06c2.98,10.12,3.73,21.07,1.78,32.17c-1.83,10.34-5.8,19.73-11.4,27.83
		c-9.62,13.94-24.02,23.98-40.41,28.22c-0.35,0.09-0.69,0.19-1.04,0.28c-0.13,0.03-0.26,0.05-0.39,0.09
		c-1.62,0.38-3.26,0.71-4.91,0.98c-0.27,0.05-0.54,0.1-0.82,0.14c-2.54,0.38-5.11,0.62-7.71,0.72c-4.06,0.16-8.18-0.03-12.33-0.6
		c-0.91-0.13-1.83-0.27-2.74-0.43c-0.06-0.01-0.13-0.03-0.19-0.04c-0.82-0.15-1.65-0.31-2.46-0.48c-0.31-0.07-0.62-0.14-0.93-0.22
		c-0.57-0.13-1.13-0.26-1.69-0.4c-0.34-0.09-0.67-0.18-1.01-0.27c-0.53-0.14-1.05-0.28-1.58-0.44c-0.34-0.1-0.67-0.21-1-0.31
		c-0.52-0.16-1.04-0.32-1.55-0.5c-0.32-0.11-0.64-0.23-0.96-0.34c-0.52-0.18-1.03-0.37-1.54-0.56c-0.31-0.12-0.61-0.24-0.92-0.36
		c-0.51-0.2-1.03-0.41-1.53-0.63c-0.3-0.13-0.59-0.26-0.89-0.39c-0.51-0.22-1.01-0.45-1.51-0.68c-0.29-0.14-0.58-0.28-0.87-0.42
		c-0.24-0.12-0.49-0.23-0.74-0.35c13.32,6.82,28.41,10.66,44.41,10.66c53.97,0,97.72-43.75,97.72-97.72
		C255.11,117.7,211.36,73.95,157.38,73.95"/>
</g>
</svg>
