<?xml version="1.0" encoding="utf-8"?>
<!-- Generator: Adobe Illustrator 23.0.3, SVG Export Plug-In . SVG Version: 6.00 Build 0)  -->
<svg version="1.1" id="图层_1" xmlns="http://www.w3.org/2000/svg" xmlns:xlink="http://www.w3.org/1999/xlink" x="0px" y="0px"
	 viewBox="0 0 1043.39 344.39" style="enable-background:new 0 0 1043.39 344.39;" xml:space="preserve">
<style type="text/css">
	.st0{fill:#FFFFFF;}
	.st1{fill:#1C1B1B;}
</style>
<g>
	<path class="st0" d="M335.37,135.59h44.67l2.63-14.89H338l0.9-5.12c0.73-4.11,4.65-7.45,8.76-7.45h37.23l2.63-14.89h-48.4
		c-8.22,0-16.07,6.67-17.51,14.89l-9.68,54.91h18.61L335.37,135.59z"/>
	<path class="st0" d="M399.23,163.04h33.5c8.22,0,16.07-6.67,17.51-14.89l7.06-40.02c1.45-8.22-4.04-14.89-12.27-14.89h-33.5
		c-8.22,0-16.07,6.67-17.52,14.89l-7.06,40.02C385.52,156.37,391.01,163.04,399.23,163.04 M406.89,140.7l4.43-25.13
		c0.73-4.11,4.65-7.45,8.76-7.45h11.17c4.11,0,6.86,3.33,6.13,7.45l-4.43,25.13c-0.73,4.11-4.65,7.45-8.76,7.45h-11.17
		C408.91,148.15,406.17,144.82,406.89,140.7"/>
	<polygon class="st0" points="457.31,163.04 480.35,163.04 497.7,143.9 508.3,163.04 531.35,163.04 512,128.14 511.79,127.77 
		543.12,93.24 520.5,93.24 502.66,112.75 491.69,93.24 469.07,93.24 488.61,128.51 	"/>
	<path class="st0" d="M743.53,185.38c0.72-4.11,4.65-7.44,8.76-7.44h11.17l2.62-14.89h-18.61h-3.72c-8.22,0-16.07,6.67-17.52,14.89
		l-2.63,14.89h-18.61l-2.62,14.89h18.61l-8.53,48.39h18.61l8.53-48.39h18.61l2.62-14.89h-18.61L743.53,185.38z"/>
	<path class="st0" d="M304.04,207.71l-8.53,48.4h18.61l7.22-40.95c0.73-4.11,4.65-7.45,8.76-7.45h18.61l2.62-14.89h-29.78
		C313.33,192.82,305.49,199.49,304.04,207.71"/>
	<path class="st0" d="M648.39,207.71l-8.53,48.4h18.61l7.22-40.95c0.73-4.11,4.65-7.45,8.76-7.45h18.61l2.63-14.89H665.9
		C657.68,192.82,649.84,199.49,648.39,207.71"/>
	<path class="st0" d="M481.63,192.82h-33.5c-8.22,0-16.06,6.67-17.52,14.89l-8.53,48.39h18.61l7.22-40.95
		c0.73-4.11,4.65-7.45,8.76-7.45h11.17c4.11,0,6.86,3.33,6.13,7.45l-7.22,40.95h18.61l8.53-48.39
		C495.35,199.49,489.86,192.82,481.63,192.82"/>
	<path class="st0" d="M555.75,163.04l-5.25,29.78h-29.78c-8.22,0-16.07,6.67-17.52,14.89l-5.91,33.5
		c-1.45,8.22,4.04,14.89,12.27,14.89h48.39l16.41-93.07H555.75z M541.97,241.22h-18.61c-4.11,0-6.86-3.33-6.13-7.44l3.28-18.61
		c0.72-4.11,4.65-7.45,8.76-7.45h18.61L541.97,241.22z"/>
	<path class="st0" d="M409.04,192.82h-33.5c-8.22,0-16.06,6.67-17.51,14.89l-5.91,33.5c-1.45,8.22,4.04,14.89,12.26,14.89h44.67
		l2.63-14.89h-33.5c-4.11,0-6.86-3.33-6.13-7.45l0.33-1.86h29.78c8.22,0,16.06-6.67,17.51-14.89l1.64-9.31
		C422.76,199.49,417.26,192.82,409.04,192.82 M401.38,215.16l-0.33,1.86h-26.06l0.33-1.86c0.73-4.11,4.65-7.44,8.76-7.44h11.17
		C399.36,207.71,402.11,211.05,401.38,215.16"/>
	<path class="st0" d="M626.81,192.82h-33.5c-8.22,0-16.07,6.67-17.51,14.89l-5.91,33.5c-1.45,8.22,4.04,14.89,12.26,14.89h44.67
		l2.63-14.89h-33.5c-4.11,0-6.86-3.33-6.13-7.45l0.33-1.86h29.78c8.22,0,16.06-6.67,17.51-14.89l1.64-9.31
		C640.53,199.49,635.04,192.82,626.81,192.82 M619.15,215.16l-0.33,1.86h-26.06l0.33-1.86c0.73-4.11,4.65-7.44,8.76-7.44h11.17
		C617.13,207.71,619.88,211.05,619.15,215.16"/>
	<path class="st0" d="M861.34,192.82h-3.72c-8.22,0-16.06,6.67-17.51,14.89l-8.53,48.39h18.61l7.22-40.95
		c0.72-4.11,4.65-7.45,8.76-7.45h18.61l2.62-14.89H861.34z"/>
	<path class="st0" d="M818.53,192.82h-3.72h-40.95l-2.63,14.89h33.5c4.11,0,6.86,3.33,6.13,7.45l-0.33,1.86h-26.06h-3.72
		c-8.22,0-16.07,6.67-17.51,14.89l-1.64,9.31c-1.45,8.22,4.04,14.89,12.26,14.89h3.72h26.06h18.61l2.63-14.89l1.64-9.31l2.63-14.89
		l1.64-9.31C832.25,199.49,826.75,192.82,818.53,192.82 M806.27,241.22h-21.4c-2.57,0-4.29-2.08-3.83-4.65
		c0.46-2.57,2.9-4.65,5.48-4.65h21.41L806.27,241.22z"/>
	<path class="st0" d="M963.71,192.82h-3.72h-13.03h-18.61h-13.03h-3.72c-8.22,0-16.07,6.67-17.52,14.89l-8.53,48.39h18.61
		l7.22-40.95c0.72-4.11,4.65-7.45,8.76-7.45h5.58l-8.53,48.39h18.61l8.53-48.39h5.58c4.11,0,6.86,3.33,6.13,7.45l-7.22,40.95h18.61
		l8.54-48.39C977.43,199.49,971.94,192.82,963.71,192.82"/>
	<path class="st1" d="M124.09,263.19c0.29,0.13,0.59,0.26,0.88,0.39c0.51,0.21,1.02,0.42,1.53,0.63c0.31,0.12,0.61,0.25,0.92,0.36
		c0.51,0.19,1.02,0.38,1.54,0.56c0.32,0.11,0.64,0.23,0.96,0.34c0.51,0.17,1.03,0.34,1.55,0.5c0.33,0.1,0.66,0.21,1,0.31
		c0.52,0.15,1.05,0.3,1.58,0.44c0.34,0.09,0.67,0.19,1.01,0.27c0.56,0.14,1.13,0.27,1.69,0.4c0.31,0.07,0.62,0.15,0.93,0.22
		c0.81,0.18,1.63,0.33,2.46,0.48c0.06,0.01,0.13,0.03,0.19,0.04c1.25,0.22,2.49,0.39,3.73,0.55c3.82,0.47,7.61,0.62,11.35,0.48
		c2.6-0.1,5.17-0.34,7.71-0.72c0.15-0.02,0.29-0.05,0.43-0.08c1.8-0.29,3.59-0.64,5.35-1.06c0.11-0.03,0.23-0.05,0.34-0.08
		c0.35-0.08,0.69-0.19,1.04-0.28c16.39-4.25,30.79-14.29,40.41-28.22c5.6-8.1,9.58-17.5,11.4-27.83c1.95-11.1,1.2-22.05-1.78-32.17
		c-0.01-0.02-0.01-0.04-0.02-0.06c-0.2-0.69-0.42-1.38-0.65-2.08c-0.48,13.82-6.11,26.34-15.07,35.67
		c-7.36,7.69-16.98,13.21-27.78,15.52c-0.01,0.01-0.03,0.02-0.05,0.03c0.01-0.01,0.01-0.02,0.02-0.03
		c-3.67,0.78-7.48,1.19-11.38,1.19c-24.04,0-44.44-15.63-51.57-37.29c-0.03,0.72-0.04,1.46-0.03,2.2
		c0.12,19.18,10.18,35.97,25.26,45.53h0c0,0,0,0,0,0c-0.35-0.03-0.69-0.07-1.04-0.1c-1.15-0.11-2.31-0.25-3.47-0.44
		c-0.31-0.05-0.61-0.08-0.92-0.14c-3.09-0.54-6.07-1.36-8.93-2.38c-1.25-0.45-2.49-0.93-3.69-1.46c-1.45-0.65-2.86-1.35-4.24-2.12
		c-0.23-0.13-0.46-0.24-0.69-0.37c-4.52-2.59-8.6-5.79-12.14-9.48c-0.01-0.01-0.03-0.03-0.04-0.04c-0.22-0.23-0.43-0.47-0.64-0.7
		c-1.53-1.65-2.96-3.38-4.27-5.2c4.91,17.43,18.4,31.78,36.44,37.24c-4.83,0.49-9.81,0.32-14.83-0.56
		c-6.27-1.11-12.09-3.26-17.33-6.24c-1.28-0.73-2.53-1.49-3.74-2.31c-0.62-0.42-1.23-0.87-1.83-1.32c-2.35-1.74-4.55-3.67-6.57-5.76
		c-0.29-0.3-0.6-0.59-0.88-0.9c7.87,9.47,17.51,17.43,28.4,23.38c0.39,0.22,0.78,0.43,1.17,0.63c0.63,0.33,1.28,0.65,1.93,0.96
		c0.29,0.14,0.58,0.28,0.87,0.42C123.08,262.74,123.59,262.96,124.09,263.19"/>
	<path class="st0" d="M165.38,76.95c-53.97,0-97.72,43.75-97.72,97.72c0,19.03,5.44,36.79,14.85,51.8c2.33,3.72,4.91,7.27,7.7,10.63
		c0,0,0,0,0,0c0.29,0.31,0.59,0.6,0.88,0.9c2.02,2.09,4.22,4.01,6.57,5.76c0.61,0.45,1.21,0.9,1.83,1.32
		c1.21,0.82,2.46,1.58,3.74,2.31c5.24,2.97,11.06,5.13,17.33,6.24c5.01,0.88,9.99,1.05,14.83,0.56
		c-18.04-5.46-31.54-19.81-36.44-37.24c1.31,1.82,2.75,3.56,4.28,5.2c0.22,0.23,0.42,0.47,0.64,0.7c0.01,0.01,0.03,0.03,0.04,0.04
		c3.55,3.69,7.62,6.89,12.14,9.48c0.22,0.13,0.46,0.24,0.69,0.37c1.38,0.76,2.79,1.47,4.24,2.12c1.2,0.53,2.44,1.02,3.69,1.46
		c2.86,1.02,5.84,1.83,8.93,2.38c0.31,0.05,0.61,0.09,0.92,0.14c1.16,0.19,2.32,0.33,3.47,0.44c0.35,0.03,0.7,0.08,1.04,0.1h0
		c-15.08-9.55-25.13-26.35-25.26-45.53c-0.01-0.74,0.01-1.47,0.03-2.2v0c-1.76-5.35-2.71-11.06-2.71-16.99
		c0-3.39,0.31-6.71,0.91-9.92c1.17-6.34,3.43-12.29,6.61-17.65c3.38-5.73,7.79-10.79,12.98-14.92c0.66-0.53,1.33-1.04,2.02-1.53
		c8.93-6.46,19.91-10.27,31.78-10.27c29.99,0,54.29,24.31,54.29,54.29c0,0.62-0.01,1.24-0.03,1.85v0.05
		c0.23,0.69,0.45,1.39,0.65,2.08c0.01,0.02,0.01,0.04,0.02,0.06c2.98,10.12,3.73,21.07,1.78,32.17c-1.83,10.34-5.8,19.73-11.4,27.83
		c-9.62,13.94-24.02,23.98-40.41,28.22c-0.35,0.09-0.69,0.19-1.04,0.28c-0.11,0.03-0.23,0.05-0.34,0.07
		c-1.76,0.42-3.54,0.77-5.35,1.06c-0.15,0.02-0.29,0.05-0.43,0.07c-2.54,0.38-5.11,0.62-7.71,0.72c-3.74,0.15-7.53-0.01-11.35-0.48
		c-1.24-0.15-2.48-0.33-3.73-0.55c-0.06-0.01-0.13-0.03-0.19-0.04c-0.82-0.15-1.65-0.31-2.46-0.48c-0.31-0.07-0.62-0.14-0.93-0.22
		c-0.57-0.13-1.13-0.26-1.69-0.4c-0.34-0.09-0.67-0.18-1.01-0.27c-0.53-0.14-1.05-0.28-1.58-0.44c-0.34-0.1-0.67-0.21-1-0.31
		c-0.52-0.16-1.04-0.32-1.55-0.5c-0.32-0.11-0.64-0.23-0.96-0.34c-0.52-0.18-1.03-0.37-1.54-0.56c-0.31-0.12-0.61-0.24-0.92-0.36
		c-0.51-0.2-1.03-0.41-1.53-0.63c-0.3-0.13-0.59-0.26-0.89-0.39c-0.51-0.22-1.01-0.45-1.51-0.68c-0.29-0.14-0.58-0.28-0.87-0.42
		c-0.24-0.12-0.49-0.23-0.74-0.35c13.32,6.82,28.41,10.66,44.41,10.66c53.97,0,97.72-43.75,97.72-97.72
		C263.11,120.7,219.36,76.95,165.38,76.95"/>
</g>
</svg>
